<mxfile host="65bd71144e">
    <diagram id="rwZVFnb9-4XuviEcM_qo" name="페이지-1">
        <mxGraphModel dx="996" dy="306" grid="1" gridSize="10" guides="1" tooltips="1" connect="1" arrows="1" fold="1" page="1" pageScale="1" pageWidth="827" pageHeight="1169" math="0" shadow="0">
            <root>
                <mxCell id="0"/>
                <mxCell id="1" parent="0"/>
                <mxCell id="2" value="Button" style="whiteSpace=wrap;html=1;fontSize=18;" parent="1" vertex="1">
                    <mxGeometry x="110" y="400" width="120" height="60" as="geometry"/>
                </mxCell>
                <mxCell id="6" value="" style="edgeStyle=none;html=1;fontSize=18;" parent="1" source="4" target="2" edge="1">
                    <mxGeometry relative="1" as="geometry"/>
                </mxCell>
                <mxCell id="8" value="" style="edgeStyle=none;html=1;fontSize=18;" parent="1" source="4" target="7" edge="1">
                    <mxGeometry relative="1" as="geometry"/>
                </mxCell>
                <mxCell id="4" value="Listener" style="whiteSpace=wrap;html=1;fontSize=18;" parent="1" vertex="1">
                    <mxGeometry x="110" y="260" width="120" height="60" as="geometry"/>
                </mxCell>
                <mxCell id="14" value="" style="edgeStyle=none;html=1;fontSize=18;" parent="1" source="7" target="13" edge="1">
                    <mxGeometry relative="1" as="geometry"/>
                </mxCell>
                <mxCell id="7" value="Controller" style="whiteSpace=wrap;html=1;fontSize=18;" parent="1" vertex="1">
                    <mxGeometry x="310" y="260" width="120" height="60" as="geometry"/>
                </mxCell>
                <mxCell id="12" value="" style="edgeStyle=none;html=1;fontSize=18;" parent="1" source="9" target="11" edge="1">
                    <mxGeometry relative="1" as="geometry"/>
                </mxCell>
                <mxCell id="9" value="View" style="whiteSpace=wrap;html=1;fontSize=18;" parent="1" vertex="1">
                    <mxGeometry x="510" y="260" width="120" height="60" as="geometry"/>
                </mxCell>
                <mxCell id="11" value="Led" style="whiteSpace=wrap;html=1;fontSize=18;" parent="1" vertex="1">
                    <mxGeometry x="510" y="400" width="120" height="60" as="geometry"/>
                </mxCell>
                <mxCell id="15" style="edgeStyle=orthogonalEdgeStyle;html=1;exitX=1;exitY=0.5;exitDx=0;exitDy=0;entryX=0.5;entryY=0;entryDx=0;entryDy=0;fontSize=18;rounded=0;" parent="1" source="13" target="9" edge="1">
                    <mxGeometry relative="1" as="geometry"/>
                </mxCell>
                <mxCell id="13" value="Service" style="whiteSpace=wrap;html=1;fontSize=18;" parent="1" vertex="1">
                    <mxGeometry x="310" y="120" width="120" height="60" as="geometry"/>
                </mxCell>
            </root>
        </mxGraphModel>
    </diagram>
    <diagram id="JMYObuIH1QSER_L9iBrt" name="페이지-2">
        <mxGraphModel dx="889" dy="575" grid="1" gridSize="10" guides="1" tooltips="1" connect="1" arrows="1" fold="1" page="1" pageScale="1" pageWidth="827" pageHeight="1169" math="0" shadow="0">
            <root>
                <mxCell id="Q607Y2rKxZQUFugG3BdK-0"/>
                <mxCell id="Q607Y2rKxZQUFugG3BdK-1" parent="Q607Y2rKxZQUFugG3BdK-0"/>
                <mxCell id="XUThxh31XiLSm-2z7mRA-0" value="Button" style="whiteSpace=wrap;html=1;fontSize=18;" parent="Q607Y2rKxZQUFugG3BdK-1" vertex="1">
                    <mxGeometry x="150" y="220" width="120" height="60" as="geometry"/>
                </mxCell>
                <mxCell id="XUThxh31XiLSm-2z7mRA-1" value="" style="edgeStyle=none;html=1;fontSize=18;" parent="Q607Y2rKxZQUFugG3BdK-1" source="XUThxh31XiLSm-2z7mRA-2" target="XUThxh31XiLSm-2z7mRA-0" edge="1">
                    <mxGeometry relative="1" as="geometry"/>
                </mxCell>
                <mxCell id="Xn4zP_rzqBb-KwKWEkbt-1" style="edgeStyle=orthogonalEdgeStyle;rounded=0;html=1;exitX=1;exitY=0.5;exitDx=0;exitDy=0;fontSize=18;" parent="Q607Y2rKxZQUFugG3BdK-1" source="XUThxh31XiLSm-2z7mRA-2" target="Xn4zP_rzqBb-KwKWEkbt-0" edge="1">
                    <mxGeometry relative="1" as="geometry"/>
                </mxCell>
                <mxCell id="XUThxh31XiLSm-2z7mRA-2" value="Listener" style="whiteSpace=wrap;html=1;fontSize=18;" parent="Q607Y2rKxZQUFugG3BdK-1" vertex="1">
                    <mxGeometry x="150" y="80" width="120" height="60" as="geometry"/>
                </mxCell>
                <mxCell id="XUThxh31XiLSm-2z7mRA-3" value="LED" style="whiteSpace=wrap;html=1;fontSize=18;" parent="Q607Y2rKxZQUFugG3BdK-1" vertex="1">
                    <mxGeometry x="540" y="220" width="120" height="60" as="geometry"/>
                </mxCell>
                <mxCell id="XUThxh31XiLSm-2z7mRA-6" value="이벤트 감시 기능" style="text;html=1;align=center;verticalAlign=middle;resizable=0;points=[];autosize=1;strokeColor=none;fillColor=none;fontSize=18;" parent="Q607Y2rKxZQUFugG3BdK-1" vertex="1">
                    <mxGeometry x="135" y="50" width="150" height="30" as="geometry"/>
                </mxCell>
                <mxCell id="z8fZrk0xQkMEeZACTWGU-1" style="edgeStyle=orthogonalEdgeStyle;rounded=0;html=1;exitX=1;exitY=0.5;exitDx=0;exitDy=0;entryX=0;entryY=0.5;entryDx=0;entryDy=0;fontSize=18;" parent="Q607Y2rKxZQUFugG3BdK-1" source="Xn4zP_rzqBb-KwKWEkbt-0" target="z8fZrk0xQkMEeZACTWGU-0" edge="1">
                    <mxGeometry relative="1" as="geometry"/>
                </mxCell>
                <mxCell id="Xn4zP_rzqBb-KwKWEkbt-0" value="controller" style="whiteSpace=wrap;html=1;fontSize=18;" parent="Q607Y2rKxZQUFugG3BdK-1" vertex="1">
                    <mxGeometry x="350" y="80" width="120" height="60" as="geometry"/>
                </mxCell>
                <mxCell id="z8fZrk0xQkMEeZACTWGU-2" style="edgeStyle=orthogonalEdgeStyle;rounded=0;html=1;exitX=0.5;exitY=1;exitDx=0;exitDy=0;fontSize=18;" parent="Q607Y2rKxZQUFugG3BdK-1" source="z8fZrk0xQkMEeZACTWGU-0" target="XUThxh31XiLSm-2z7mRA-3" edge="1">
                    <mxGeometry relative="1" as="geometry"/>
                </mxCell>
                <mxCell id="z8fZrk0xQkMEeZACTWGU-0" value="View" style="whiteSpace=wrap;html=1;fontSize=18;" parent="Q607Y2rKxZQUFugG3BdK-1" vertex="1">
                    <mxGeometry x="540" y="80" width="120" height="60" as="geometry"/>
                </mxCell>
                <mxCell id="DvL0vwsPSO0-ldlwgtwO-0" value="Data 분배" style="text;html=1;align=center;verticalAlign=middle;resizable=0;points=[];autosize=1;strokeColor=none;fillColor=none;fontSize=18;" vertex="1" parent="Q607Y2rKxZQUFugG3BdK-1">
                    <mxGeometry x="369" y="50" width="90" height="30" as="geometry"/>
                </mxCell>
                <mxCell id="DvL0vwsPSO0-ldlwgtwO-1" value="출력 담당" style="text;html=1;align=center;verticalAlign=middle;resizable=0;points=[];autosize=1;strokeColor=none;fillColor=none;fontSize=18;" vertex="1" parent="Q607Y2rKxZQUFugG3BdK-1">
                    <mxGeometry x="555" y="50" width="90" height="30" as="geometry"/>
                </mxCell>
                <mxCell id="DvL0vwsPSO0-ldlwgtwO-2" value="밝기에 따른 LED 개수 ON/OFF" style="text;html=1;align=center;verticalAlign=middle;resizable=0;points=[];autosize=1;strokeColor=none;fillColor=none;fontSize=18;" vertex="1" parent="Q607Y2rKxZQUFugG3BdK-1">
                    <mxGeometry x="470" y="280" width="260" height="30" as="geometry"/>
                </mxCell>
                <mxCell id="DvL0vwsPSO0-ldlwgtwO-3" value="밝기 조정 버튼" style="text;html=1;align=center;verticalAlign=middle;resizable=0;points=[];autosize=1;strokeColor=none;fillColor=none;fontSize=18;" vertex="1" parent="Q607Y2rKxZQUFugG3BdK-1">
                    <mxGeometry x="145" y="280" width="130" height="30" as="geometry"/>
                </mxCell>
                <mxCell id="DvL0vwsPSO0-ldlwgtwO-4" value="상태 머신" style="text;html=1;align=center;verticalAlign=middle;resizable=0;points=[];autosize=1;strokeColor=none;fillColor=none;fontSize=18;" vertex="1" parent="Q607Y2rKxZQUFugG3BdK-1">
                    <mxGeometry x="369" y="140" width="90" height="30" as="geometry"/>
                </mxCell>
                <mxCell id="DvL0vwsPSO0-ldlwgtwO-5" value="과제 : 버튼 1개로 LED 5개 제어&lt;br&gt;한번 누를때마다 한개씩 켜지다가 5개 넘어가면 다꺼짐" style="text;html=1;align=center;verticalAlign=middle;resizable=0;points=[];autosize=1;strokeColor=none;fillColor=none;fontSize=18;" vertex="1" parent="Q607Y2rKxZQUFugG3BdK-1">
                    <mxGeometry x="170" y="320" width="450" height="50" as="geometry"/>
                </mxCell>
            </root>
        </mxGraphModel>
    </diagram>
    <diagram id="QWQgNj7xaS9iXt1IkC2c" name="Page-3">
        <mxGraphModel dx="1080" dy="391" grid="1" gridSize="10" guides="1" tooltips="1" connect="1" arrows="1" fold="1" page="1" pageScale="1" pageWidth="827" pageHeight="1169" math="0" shadow="0">
            <root>
                <mxCell id="5h07jUuK7hL_kC0C71E2-0"/>
                <mxCell id="5h07jUuK7hL_kC0C71E2-1" parent="5h07jUuK7hL_kC0C71E2-0"/>
                <mxCell id="5h07jUuK7hL_kC0C71E2-2" value="Button" style="whiteSpace=wrap;html=1;fontSize=18;" parent="5h07jUuK7hL_kC0C71E2-1" vertex="1">
                    <mxGeometry x="119" y="470" width="120" height="60" as="geometry"/>
                </mxCell>
                <mxCell id="5h07jUuK7hL_kC0C71E2-3" value="" style="edgeStyle=none;html=1;fontSize=18;" parent="5h07jUuK7hL_kC0C71E2-1" source="5h07jUuK7hL_kC0C71E2-5" target="5h07jUuK7hL_kC0C71E2-2" edge="1">
                    <mxGeometry relative="1" as="geometry"/>
                </mxCell>
                <mxCell id="5h07jUuK7hL_kC0C71E2-4" value="" style="edgeStyle=none;html=1;fontSize=18;" parent="5h07jUuK7hL_kC0C71E2-1" source="5h07jUuK7hL_kC0C71E2-5" target="5h07jUuK7hL_kC0C71E2-7" edge="1">
                    <mxGeometry relative="1" as="geometry"/>
                </mxCell>
                <mxCell id="5h07jUuK7hL_kC0C71E2-5" value="Listener" style="whiteSpace=wrap;html=1;fontSize=18;" parent="5h07jUuK7hL_kC0C71E2-1" vertex="1">
                    <mxGeometry x="119" y="330" width="120" height="60" as="geometry"/>
                </mxCell>
                <mxCell id="5h07jUuK7hL_kC0C71E2-6" value="" style="edgeStyle=none;html=1;fontSize=18;" parent="5h07jUuK7hL_kC0C71E2-1" source="5h07jUuK7hL_kC0C71E2-7" target="5h07jUuK7hL_kC0C71E2-12" edge="1">
                    <mxGeometry relative="1" as="geometry"/>
                </mxCell>
                <mxCell id="5h07jUuK7hL_kC0C71E2-7" value="Controller" style="whiteSpace=wrap;html=1;fontSize=18;" parent="5h07jUuK7hL_kC0C71E2-1" vertex="1">
                    <mxGeometry x="319" y="330" width="120" height="60" as="geometry"/>
                </mxCell>
                <mxCell id="5h07jUuK7hL_kC0C71E2-8" value="" style="edgeStyle=none;html=1;fontSize=18;" parent="5h07jUuK7hL_kC0C71E2-1" source="5h07jUuK7hL_kC0C71E2-9" target="5h07jUuK7hL_kC0C71E2-10" edge="1">
                    <mxGeometry relative="1" as="geometry"/>
                </mxCell>
                <mxCell id="ikoayu39LveeOcxt5L2B-4" style="edgeStyle=none;html=1;exitX=1;exitY=0;exitDx=0;exitDy=0;" parent="5h07jUuK7hL_kC0C71E2-1" source="5h07jUuK7hL_kC0C71E2-9" edge="1">
                    <mxGeometry relative="1" as="geometry">
                        <mxPoint x="639.2352941176471" y="160" as="targetPoint"/>
                    </mxGeometry>
                </mxCell>
                <mxCell id="5h07jUuK7hL_kC0C71E2-9" value="View" style="whiteSpace=wrap;html=1;fontSize=18;" parent="5h07jUuK7hL_kC0C71E2-1" vertex="1">
                    <mxGeometry x="519" y="330" width="120" height="60" as="geometry"/>
                </mxCell>
                <mxCell id="5h07jUuK7hL_kC0C71E2-10" value="Led" style="whiteSpace=wrap;html=1;fontSize=18;" parent="5h07jUuK7hL_kC0C71E2-1" vertex="1">
                    <mxGeometry x="519" y="470" width="120" height="60" as="geometry"/>
                </mxCell>
                <mxCell id="5h07jUuK7hL_kC0C71E2-11" style="edgeStyle=orthogonalEdgeStyle;html=1;exitX=1;exitY=0.5;exitDx=0;exitDy=0;entryX=0.5;entryY=0;entryDx=0;entryDy=0;fontSize=18;rounded=0;" parent="5h07jUuK7hL_kC0C71E2-1" source="5h07jUuK7hL_kC0C71E2-12" target="5h07jUuK7hL_kC0C71E2-9" edge="1">
                    <mxGeometry relative="1" as="geometry"/>
                </mxCell>
                <mxCell id="ikoayu39LveeOcxt5L2B-3" style="edgeStyle=none;html=1;exitX=1;exitY=0;exitDx=0;exitDy=0;entryX=0;entryY=0.5;entryDx=0;entryDy=0;" parent="5h07jUuK7hL_kC0C71E2-1" source="5h07jUuK7hL_kC0C71E2-12" target="ikoayu39LveeOcxt5L2B-1" edge="1">
                    <mxGeometry relative="1" as="geometry">
                        <Array as="points">
                            <mxPoint x="439" y="130"/>
                        </Array>
                    </mxGeometry>
                </mxCell>
                <mxCell id="5h07jUuK7hL_kC0C71E2-12" value="Service" style="whiteSpace=wrap;html=1;fontSize=18;" parent="5h07jUuK7hL_kC0C71E2-1" vertex="1">
                    <mxGeometry x="319" y="190" width="120" height="60" as="geometry"/>
                </mxCell>
                <mxCell id="JslcRb93tGOdgrSZfQcE-0" value="이벤트 감시 기능" style="text;html=1;align=center;verticalAlign=middle;resizable=0;points=[];autosize=1;strokeColor=none;fillColor=none;fontSize=18;" parent="5h07jUuK7hL_kC0C71E2-1" vertex="1">
                    <mxGeometry x="109" y="300" width="150" height="30" as="geometry"/>
                </mxCell>
                <mxCell id="JslcRb93tGOdgrSZfQcE-1" value="Data 분배" style="text;html=1;align=center;verticalAlign=middle;resizable=0;points=[];autosize=1;strokeColor=none;fillColor=none;fontSize=18;" parent="5h07jUuK7hL_kC0C71E2-1" vertex="1">
                    <mxGeometry x="343" y="300" width="90" height="30" as="geometry"/>
                </mxCell>
                <mxCell id="JslcRb93tGOdgrSZfQcE-2" value="출력 담당" style="text;html=1;align=center;verticalAlign=middle;resizable=0;points=[];autosize=1;strokeColor=none;fillColor=none;fontSize=18;" parent="5h07jUuK7hL_kC0C71E2-1" vertex="1">
                    <mxGeometry x="529" y="300" width="90" height="30" as="geometry"/>
                </mxCell>
                <mxCell id="8RJoNgfPAQQQIVhC-n6s-0" value="밝기에 따른 LED 개수 ON/OFF" style="text;html=1;align=center;verticalAlign=middle;resizable=0;points=[];autosize=1;strokeColor=none;fillColor=none;fontSize=18;" parent="5h07jUuK7hL_kC0C71E2-1" vertex="1">
                    <mxGeometry x="434" y="530" width="260" height="30" as="geometry"/>
                </mxCell>
                <mxCell id="8RJoNgfPAQQQIVhC-n6s-1" value="밝기 조정 버튼" style="text;html=1;align=center;verticalAlign=middle;resizable=0;points=[];autosize=1;strokeColor=none;fillColor=none;fontSize=18;" parent="5h07jUuK7hL_kC0C71E2-1" vertex="1">
                    <mxGeometry x="109" y="530" width="130" height="30" as="geometry"/>
                </mxCell>
                <mxCell id="ikoayu39LveeOcxt5L2B-0" value="상태 머신" style="text;html=1;align=center;verticalAlign=middle;resizable=0;points=[];autosize=1;strokeColor=none;fillColor=none;fontSize=18;" parent="5h07jUuK7hL_kC0C71E2-1" vertex="1">
                    <mxGeometry x="334" y="160" width="90" height="30" as="geometry"/>
                </mxCell>
                <mxCell id="ikoayu39LveeOcxt5L2B-1" value="&amp;lt;&amp;lt;enum&amp;gt;&amp;gt;&lt;br&gt;lightState" style="whiteSpace=wrap;html=1;fontSize=18;" parent="5h07jUuK7hL_kC0C71E2-1" vertex="1">
                    <mxGeometry x="519" y="100" width="120" height="60" as="geometry"/>
                </mxCell>
            </root>
        </mxGraphModel>
    </diagram>
    <diagram id="5aWoL5b623gk_hBhjLDa" name="Page-4">
        <mxGraphModel dx="990" dy="574" grid="1" gridSize="10" guides="1" tooltips="1" connect="1" arrows="1" fold="1" page="1" pageScale="1" pageWidth="827" pageHeight="1169" math="0" shadow="0">
            <root>
                <mxCell id="2PxVSmzDnWjnGNBgVdW4-0"/>
                <mxCell id="2PxVSmzDnWjnGNBgVdW4-1" parent="2PxVSmzDnWjnGNBgVdW4-0"/>
                <mxCell id="2PxVSmzDnWjnGNBgVdW4-2" value="" style="edgeStyle=none;html=1;fontSize=14;rounded=1;" parent="2PxVSmzDnWjnGNBgVdW4-1" source="2PxVSmzDnWjnGNBgVdW4-5" target="2PxVSmzDnWjnGNBgVdW4-8" edge="1">
                    <mxGeometry relative="1" as="geometry"/>
                </mxCell>
                <mxCell id="2PxVSmzDnWjnGNBgVdW4-3" value="" style="edgeStyle=none;html=1;fontSize=14;rounded=1;" parent="2PxVSmzDnWjnGNBgVdW4-1" source="2PxVSmzDnWjnGNBgVdW4-5" target="2PxVSmzDnWjnGNBgVdW4-6" edge="1">
                    <mxGeometry relative="1" as="geometry"/>
                </mxCell>
                <mxCell id="2PxVSmzDnWjnGNBgVdW4-4" style="edgeStyle=none;html=1;exitX=0.5;exitY=1;exitDx=0;exitDy=0;entryX=0.5;entryY=0;entryDx=0;entryDy=0;fontSize=14;rounded=1;" parent="2PxVSmzDnWjnGNBgVdW4-1" source="2PxVSmzDnWjnGNBgVdW4-5" target="2PxVSmzDnWjnGNBgVdW4-21" edge="1">
                    <mxGeometry relative="1" as="geometry">
                        <Array as="points">
                            <mxPoint x="180" y="260"/>
                            <mxPoint x="340" y="260"/>
                        </Array>
                    </mxGeometry>
                </mxCell>
                <mxCell id="2PxVSmzDnWjnGNBgVdW4-5" value="&lt;b&gt;&lt;font style=&quot;font-size: 14px&quot;&gt;Listener&lt;/font&gt;&lt;/b&gt;" style="rounded=1;whiteSpace=wrap;html=1;" parent="2PxVSmzDnWjnGNBgVdW4-1" vertex="1">
                    <mxGeometry x="120" y="200" width="120" height="40" as="geometry"/>
                </mxCell>
                <mxCell id="2PxVSmzDnWjnGNBgVdW4-6" value="&lt;span style=&quot;font-size: 14px&quot;&gt;&lt;b&gt;Button&lt;/b&gt;&lt;/span&gt;" style="rounded=1;whiteSpace=wrap;html=1;" parent="2PxVSmzDnWjnGNBgVdW4-1" vertex="1">
                    <mxGeometry x="120" y="280" width="120" height="40" as="geometry"/>
                </mxCell>
                <mxCell id="2PxVSmzDnWjnGNBgVdW4-7" value="" style="edgeStyle=none;html=1;fontSize=14;rounded=1;" parent="2PxVSmzDnWjnGNBgVdW4-1" source="2PxVSmzDnWjnGNBgVdW4-8" target="2PxVSmzDnWjnGNBgVdW4-10" edge="1">
                    <mxGeometry relative="1" as="geometry"/>
                </mxCell>
                <mxCell id="2PxVSmzDnWjnGNBgVdW4-8" value="&lt;b&gt;&lt;font style=&quot;font-size: 14px&quot;&gt;Controller&lt;/font&gt;&lt;/b&gt;" style="rounded=1;whiteSpace=wrap;html=1;" parent="2PxVSmzDnWjnGNBgVdW4-1" vertex="1">
                    <mxGeometry x="280" y="200" width="120" height="40" as="geometry"/>
                </mxCell>
                <mxCell id="2PxVSmzDnWjnGNBgVdW4-9" style="edgeStyle=none;html=1;exitX=1;exitY=0.5;exitDx=0;exitDy=0;entryX=0.5;entryY=0;entryDx=0;entryDy=0;fontSize=14;rounded=1;" parent="2PxVSmzDnWjnGNBgVdW4-1" source="2PxVSmzDnWjnGNBgVdW4-10" target="2PxVSmzDnWjnGNBgVdW4-12" edge="1">
                    <mxGeometry relative="1" as="geometry">
                        <Array as="points">
                            <mxPoint x="500" y="140"/>
                        </Array>
                    </mxGeometry>
                </mxCell>
                <mxCell id="2PxVSmzDnWjnGNBgVdW4-10" value="&lt;b&gt;&lt;font style=&quot;font-size: 14px&quot;&gt;StandLight&lt;br&gt;Service&lt;/font&gt;&lt;/b&gt;" style="rounded=1;whiteSpace=wrap;html=1;" parent="2PxVSmzDnWjnGNBgVdW4-1" vertex="1">
                    <mxGeometry x="280" y="120" width="120" height="40" as="geometry"/>
                </mxCell>
                <mxCell id="2PxVSmzDnWjnGNBgVdW4-11" value="" style="edgeStyle=none;html=1;fontSize=14;rounded=1;" parent="2PxVSmzDnWjnGNBgVdW4-1" source="2PxVSmzDnWjnGNBgVdW4-12" target="2PxVSmzDnWjnGNBgVdW4-13" edge="1">
                    <mxGeometry relative="1" as="geometry"/>
                </mxCell>
                <mxCell id="2PxVSmzDnWjnGNBgVdW4-12" value="&lt;b&gt;&lt;font style=&quot;font-size: 14px&quot;&gt;View&lt;/font&gt;&lt;/b&gt;" style="rounded=1;whiteSpace=wrap;html=1;" parent="2PxVSmzDnWjnGNBgVdW4-1" vertex="1">
                    <mxGeometry x="440" y="200" width="120" height="40" as="geometry"/>
                </mxCell>
                <mxCell id="2PxVSmzDnWjnGNBgVdW4-13" value="&lt;b&gt;&lt;font style=&quot;font-size: 14px&quot;&gt;LED&lt;/font&gt;&lt;/b&gt;" style="rounded=1;whiteSpace=wrap;html=1;" parent="2PxVSmzDnWjnGNBgVdW4-1" vertex="1">
                    <mxGeometry x="440" y="280" width="120" height="40" as="geometry"/>
                </mxCell>
                <mxCell id="2PxVSmzDnWjnGNBgVdW4-14" value="&lt;b&gt;&lt;font style=&quot;font-size: 14px&quot;&gt;LCD&lt;/font&gt;&lt;/b&gt;" style="rounded=1;whiteSpace=wrap;html=1;" parent="2PxVSmzDnWjnGNBgVdW4-1" vertex="1">
                    <mxGeometry x="600" y="280" width="120" height="40" as="geometry"/>
                </mxCell>
                <mxCell id="2PxVSmzDnWjnGNBgVdW4-15" value="요구 사항&lt;br&gt;스탠드 밝기 조절 + 시계&lt;br&gt;&lt;br&gt;- 1번 버튼 밝기 조절&lt;br&gt;- 2번 시계 BackLight On/Off&lt;br&gt;" style="text;html=1;strokeColor=none;fillColor=none;align=left;verticalAlign=middle;whiteSpace=wrap;rounded=1;fontSize=14;" parent="2PxVSmzDnWjnGNBgVdW4-1" vertex="1">
                    <mxGeometry x="120" y="370" width="520" height="150" as="geometry"/>
                </mxCell>
                <mxCell id="2PxVSmzDnWjnGNBgVdW4-16" value="&lt;span style=&quot;font-size: 14px&quot;&gt;&lt;b&gt;ClockService&lt;/b&gt;&lt;/span&gt;" style="rounded=1;whiteSpace=wrap;html=1;" parent="2PxVSmzDnWjnGNBgVdW4-1" vertex="1">
                    <mxGeometry x="120" y="120" width="120" height="40" as="geometry"/>
                </mxCell>
                <mxCell id="2PxVSmzDnWjnGNBgVdW4-17" value="" style="endArrow=classic;html=1;fontSize=14;entryX=0.5;entryY=1;entryDx=0;entryDy=0;exitX=0.5;exitY=0;exitDx=0;exitDy=0;rounded=1;" parent="2PxVSmzDnWjnGNBgVdW4-1" source="2PxVSmzDnWjnGNBgVdW4-8" target="2PxVSmzDnWjnGNBgVdW4-16" edge="1">
                    <mxGeometry width="50" height="50" relative="1" as="geometry">
                        <mxPoint x="330" y="310" as="sourcePoint"/>
                        <mxPoint x="380" y="260" as="targetPoint"/>
                        <Array as="points">
                            <mxPoint x="340" y="180"/>
                            <mxPoint x="180" y="180"/>
                        </Array>
                    </mxGeometry>
                </mxCell>
                <mxCell id="2PxVSmzDnWjnGNBgVdW4-18" value="" style="endArrow=classic;html=1;fontSize=14;exitX=0.5;exitY=0;exitDx=0;exitDy=0;entryX=0.5;entryY=0;entryDx=0;entryDy=0;rounded=1;" parent="2PxVSmzDnWjnGNBgVdW4-1" source="2PxVSmzDnWjnGNBgVdW4-16" target="2PxVSmzDnWjnGNBgVdW4-20" edge="1">
                    <mxGeometry width="50" height="50" relative="1" as="geometry">
                        <mxPoint x="330" y="220" as="sourcePoint"/>
                        <mxPoint x="380" y="170" as="targetPoint"/>
                        <Array as="points">
                            <mxPoint x="180" y="80"/>
                            <mxPoint x="660" y="80"/>
                        </Array>
                    </mxGeometry>
                </mxCell>
                <mxCell id="2PxVSmzDnWjnGNBgVdW4-19" value="" style="edgeStyle=none;html=1;fontSize=14;rounded=1;" parent="2PxVSmzDnWjnGNBgVdW4-1" source="2PxVSmzDnWjnGNBgVdW4-20" target="2PxVSmzDnWjnGNBgVdW4-14" edge="1">
                    <mxGeometry relative="1" as="geometry"/>
                </mxCell>
                <mxCell id="2PxVSmzDnWjnGNBgVdW4-20" value="&lt;b&gt;&lt;font style=&quot;font-size: 14px&quot;&gt;Clock&lt;br&gt;View&lt;/font&gt;&lt;/b&gt;" style="rounded=1;whiteSpace=wrap;html=1;" parent="2PxVSmzDnWjnGNBgVdW4-1" vertex="1">
                    <mxGeometry x="600" y="200" width="120" height="40" as="geometry"/>
                </mxCell>
                <mxCell id="2PxVSmzDnWjnGNBgVdW4-21" value="&lt;span style=&quot;font-size: 14px&quot;&gt;&lt;b&gt;ClockCheck&lt;/b&gt;&lt;/span&gt;" style="rounded=1;whiteSpace=wrap;html=1;" parent="2PxVSmzDnWjnGNBgVdW4-1" vertex="1">
                    <mxGeometry x="280" y="280" width="120" height="40" as="geometry"/>
                </mxCell>
                <mxCell id="2PxVSmzDnWjnGNBgVdW4-22" value="2" style="text;html=1;strokeColor=none;fillColor=none;align=center;verticalAlign=middle;whiteSpace=wrap;rounded=0;fontSize=14;" parent="2PxVSmzDnWjnGNBgVdW4-1" vertex="1">
                    <mxGeometry x="170" y="260" width="60" height="30" as="geometry"/>
                </mxCell>
                <mxCell id="2PxVSmzDnWjnGNBgVdW4-23" value="5" style="text;html=1;strokeColor=none;fillColor=none;align=center;verticalAlign=middle;whiteSpace=wrap;rounded=0;fontSize=14;" parent="2PxVSmzDnWjnGNBgVdW4-1" vertex="1">
                    <mxGeometry x="490" y="260" width="60" height="30" as="geometry"/>
                </mxCell>
            </root>
        </mxGraphModel>
    </diagram>
    <diagram id="bKTrU44tuVr0iP20ei00" name="Page-5">
        <mxGraphModel dx="1660" dy="510" grid="1" gridSize="10" guides="1" tooltips="1" connect="1" arrows="1" fold="1" page="1" pageScale="1" pageWidth="827" pageHeight="1169" math="0" shadow="0">
            <root>
                <mxCell id="f1mcjPqgYPUA-9DvgXTx-0"/>
                <mxCell id="f1mcjPqgYPUA-9DvgXTx-1" parent="f1mcjPqgYPUA-9DvgXTx-0"/>
                <mxCell id="sVgdffkQ3w-8zsyEX-1O-9" value="" style="edgeStyle=none;html=1;fontSize=14;rounded=1;" edge="1" parent="f1mcjPqgYPUA-9DvgXTx-1" source="sVgdffkQ3w-8zsyEX-1O-13" target="sVgdffkQ3w-8zsyEX-1O-18">
                    <mxGeometry relative="1" as="geometry"/>
                </mxCell>
                <mxCell id="sVgdffkQ3w-8zsyEX-1O-10" value="" style="edgeStyle=none;html=1;fontSize=14;rounded=1;" edge="1" parent="f1mcjPqgYPUA-9DvgXTx-1" source="sVgdffkQ3w-8zsyEX-1O-13" target="sVgdffkQ3w-8zsyEX-1O-14">
                    <mxGeometry relative="1" as="geometry"/>
                </mxCell>
                <mxCell id="sVgdffkQ3w-8zsyEX-1O-11" style="edgeStyle=none;html=1;exitX=0.5;exitY=1;exitDx=0;exitDy=0;entryX=0.5;entryY=0;entryDx=0;entryDy=0;fontSize=14;rounded=1;" edge="1" parent="f1mcjPqgYPUA-9DvgXTx-1" source="sVgdffkQ3w-8zsyEX-1O-13" target="sVgdffkQ3w-8zsyEX-1O-31">
                    <mxGeometry relative="1" as="geometry">
                        <Array as="points">
                            <mxPoint x="261" y="260"/>
                            <mxPoint x="421" y="260"/>
                        </Array>
                    </mxGeometry>
                </mxCell>
                <mxCell id="sVgdffkQ3w-8zsyEX-1O-12" style="edgeStyle=orthogonalEdgeStyle;html=1;exitX=0.5;exitY=1;exitDx=0;exitDy=0;entryX=0.5;entryY=0;entryDx=0;entryDy=0;" edge="1" parent="f1mcjPqgYPUA-9DvgXTx-1" source="sVgdffkQ3w-8zsyEX-1O-13" target="sVgdffkQ3w-8zsyEX-1O-34">
                    <mxGeometry relative="1" as="geometry"/>
                </mxCell>
                <mxCell id="sVgdffkQ3w-8zsyEX-1O-13" value="&lt;b&gt;&lt;font style=&quot;font-size: 14px&quot;&gt;Listener&lt;/font&gt;&lt;/b&gt;" style="rounded=1;whiteSpace=wrap;html=1;" vertex="1" parent="f1mcjPqgYPUA-9DvgXTx-1">
                    <mxGeometry x="201" y="200" width="120" height="40" as="geometry"/>
                </mxCell>
                <mxCell id="sVgdffkQ3w-8zsyEX-1O-14" value="&lt;span style=&quot;font-size: 14px&quot;&gt;&lt;b&gt;Mode&lt;br&gt;Button&lt;/b&gt;&lt;/span&gt;" style="rounded=1;whiteSpace=wrap;html=1;" vertex="1" parent="f1mcjPqgYPUA-9DvgXTx-1">
                    <mxGeometry x="201" y="280" width="120" height="40" as="geometry"/>
                </mxCell>
                <mxCell id="sVgdffkQ3w-8zsyEX-1O-15" value="" style="edgeStyle=orthogonalEdgeStyle;html=1;" edge="1" parent="f1mcjPqgYPUA-9DvgXTx-1" source="sVgdffkQ3w-8zsyEX-1O-18" target="sVgdffkQ3w-8zsyEX-1O-28">
                    <mxGeometry relative="1" as="geometry"/>
                </mxCell>
                <mxCell id="sVgdffkQ3w-8zsyEX-1O-16" style="edgeStyle=orthogonalEdgeStyle;html=1;exitX=0;exitY=0.5;exitDx=0;exitDy=0;entryX=0.5;entryY=1;entryDx=0;entryDy=0;" edge="1" parent="f1mcjPqgYPUA-9DvgXTx-1" source="sVgdffkQ3w-8zsyEX-1O-18" target="sVgdffkQ3w-8zsyEX-1O-36">
                    <mxGeometry relative="1" as="geometry"/>
                </mxCell>
                <mxCell id="sVgdffkQ3w-8zsyEX-1O-17" style="edgeStyle=orthogonalEdgeStyle;html=1;exitX=1;exitY=0.5;exitDx=0;exitDy=0;entryX=0.5;entryY=1;entryDx=0;entryDy=0;" edge="1" parent="f1mcjPqgYPUA-9DvgXTx-1" source="sVgdffkQ3w-8zsyEX-1O-18" target="sVgdffkQ3w-8zsyEX-1O-20">
                    <mxGeometry relative="1" as="geometry"/>
                </mxCell>
                <mxCell id="sVgdffkQ3w-8zsyEX-1O-18" value="&lt;b&gt;&lt;font style=&quot;font-size: 14px&quot;&gt;Controller&lt;/font&gt;&lt;/b&gt;" style="rounded=1;whiteSpace=wrap;html=1;" vertex="1" parent="f1mcjPqgYPUA-9DvgXTx-1">
                    <mxGeometry x="201" y="120" width="120" height="40" as="geometry"/>
                </mxCell>
                <mxCell id="sVgdffkQ3w-8zsyEX-1O-19" style="edgeStyle=orthogonalEdgeStyle;html=1;exitX=1;exitY=0.5;exitDx=0;exitDy=0;entryX=0.5;entryY=0;entryDx=0;entryDy=0;" edge="1" parent="f1mcjPqgYPUA-9DvgXTx-1" source="sVgdffkQ3w-8zsyEX-1O-20" target="sVgdffkQ3w-8zsyEX-1O-23">
                    <mxGeometry relative="1" as="geometry"/>
                </mxCell>
                <mxCell id="sVgdffkQ3w-8zsyEX-1O-20" value="&lt;b&gt;&lt;font style=&quot;font-size: 14px&quot;&gt;StandLight&lt;br&gt;Service&lt;/font&gt;&lt;/b&gt;" style="rounded=1;whiteSpace=wrap;html=1;" vertex="1" parent="f1mcjPqgYPUA-9DvgXTx-1">
                    <mxGeometry x="360" y="40" width="120" height="40" as="geometry"/>
                </mxCell>
                <mxCell id="sVgdffkQ3w-8zsyEX-1O-21" value="" style="edgeStyle=none;html=1;fontSize=14;rounded=1;" edge="1" parent="f1mcjPqgYPUA-9DvgXTx-1" source="sVgdffkQ3w-8zsyEX-1O-23" target="sVgdffkQ3w-8zsyEX-1O-24">
                    <mxGeometry relative="1" as="geometry"/>
                </mxCell>
                <mxCell id="sVgdffkQ3w-8zsyEX-1O-22" style="edgeStyle=orthogonalEdgeStyle;html=1;exitX=0.5;exitY=1;exitDx=0;exitDy=0;entryX=0.5;entryY=0;entryDx=0;entryDy=0;" edge="1" parent="f1mcjPqgYPUA-9DvgXTx-1" source="sVgdffkQ3w-8zsyEX-1O-23" target="sVgdffkQ3w-8zsyEX-1O-25">
                    <mxGeometry relative="1" as="geometry"/>
                </mxCell>
                <mxCell id="sVgdffkQ3w-8zsyEX-1O-23" value="&lt;b&gt;&lt;font style=&quot;font-size: 14px&quot;&gt;View&lt;/font&gt;&lt;/b&gt;" style="rounded=1;whiteSpace=wrap;html=1;" vertex="1" parent="f1mcjPqgYPUA-9DvgXTx-1">
                    <mxGeometry x="521" y="200" width="120" height="40" as="geometry"/>
                </mxCell>
                <mxCell id="sVgdffkQ3w-8zsyEX-1O-24" value="&lt;b&gt;&lt;font style=&quot;font-size: 14px&quot;&gt;LED&lt;/font&gt;&lt;/b&gt;" style="rounded=1;whiteSpace=wrap;html=1;" vertex="1" parent="f1mcjPqgYPUA-9DvgXTx-1">
                    <mxGeometry x="521" y="280" width="120" height="40" as="geometry"/>
                </mxCell>
                <mxCell id="sVgdffkQ3w-8zsyEX-1O-25" value="&lt;b&gt;&lt;font style=&quot;font-size: 14px&quot;&gt;LCD&lt;/font&gt;&lt;/b&gt;" style="rounded=1;whiteSpace=wrap;html=1;" vertex="1" parent="f1mcjPqgYPUA-9DvgXTx-1">
                    <mxGeometry x="681" y="280" width="120" height="40" as="geometry"/>
                </mxCell>
                <mxCell id="sVgdffkQ3w-8zsyEX-1O-26" value="요구 사항&lt;br&gt;스탠드 밝기 조절 + 시계&lt;br&gt;&lt;br&gt;- 1번 버튼 밝기 조절&lt;br&gt;- 2번 시계 BackLight On/Off&lt;br&gt;- LCD에 상태 표시 추가" style="text;html=1;strokeColor=none;fillColor=none;align=left;verticalAlign=middle;whiteSpace=wrap;rounded=1;fontSize=14;" vertex="1" parent="f1mcjPqgYPUA-9DvgXTx-1">
                    <mxGeometry x="194" y="370" width="520" height="150" as="geometry"/>
                </mxCell>
                <mxCell id="sVgdffkQ3w-8zsyEX-1O-27" style="edgeStyle=orthogonalEdgeStyle;html=1;exitX=0.5;exitY=0;exitDx=0;exitDy=0;entryX=0.5;entryY=0;entryDx=0;entryDy=0;" edge="1" parent="f1mcjPqgYPUA-9DvgXTx-1" source="sVgdffkQ3w-8zsyEX-1O-28" target="sVgdffkQ3w-8zsyEX-1O-30">
                    <mxGeometry relative="1" as="geometry"/>
                </mxCell>
                <mxCell id="sVgdffkQ3w-8zsyEX-1O-28" value="&lt;span style=&quot;font-size: 14px&quot;&gt;&lt;b&gt;ClockService&lt;/b&gt;&lt;/span&gt;" style="rounded=1;whiteSpace=wrap;html=1;" vertex="1" parent="f1mcjPqgYPUA-9DvgXTx-1">
                    <mxGeometry x="201" y="40" width="120" height="40" as="geometry"/>
                </mxCell>
                <mxCell id="sVgdffkQ3w-8zsyEX-1O-29" value="" style="edgeStyle=none;html=1;fontSize=14;rounded=1;" edge="1" parent="f1mcjPqgYPUA-9DvgXTx-1" source="sVgdffkQ3w-8zsyEX-1O-30" target="sVgdffkQ3w-8zsyEX-1O-25">
                    <mxGeometry relative="1" as="geometry"/>
                </mxCell>
                <mxCell id="sVgdffkQ3w-8zsyEX-1O-30" value="&lt;b&gt;&lt;font style=&quot;font-size: 14px&quot;&gt;Clock&lt;br&gt;View&lt;/font&gt;&lt;/b&gt;" style="rounded=1;whiteSpace=wrap;html=1;" vertex="1" parent="f1mcjPqgYPUA-9DvgXTx-1">
                    <mxGeometry x="681" y="200" width="120" height="40" as="geometry"/>
                </mxCell>
                <mxCell id="sVgdffkQ3w-8zsyEX-1O-31" value="&lt;span style=&quot;font-size: 14px&quot;&gt;&lt;b&gt;ClockCheck&lt;/b&gt;&lt;/span&gt;" style="rounded=1;whiteSpace=wrap;html=1;" vertex="1" parent="f1mcjPqgYPUA-9DvgXTx-1">
                    <mxGeometry x="361" y="280" width="120" height="40" as="geometry"/>
                </mxCell>
                <mxCell id="sVgdffkQ3w-8zsyEX-1O-32" value="2" style="text;html=1;strokeColor=none;fillColor=none;align=center;verticalAlign=middle;whiteSpace=wrap;rounded=0;fontSize=14;" vertex="1" parent="f1mcjPqgYPUA-9DvgXTx-1">
                    <mxGeometry x="251" y="260" width="60" height="30" as="geometry"/>
                </mxCell>
                <mxCell id="sVgdffkQ3w-8zsyEX-1O-33" value="5" style="text;html=1;strokeColor=none;fillColor=none;align=center;verticalAlign=middle;whiteSpace=wrap;rounded=0;fontSize=14;" vertex="1" parent="f1mcjPqgYPUA-9DvgXTx-1">
                    <mxGeometry x="571" y="260" width="60" height="30" as="geometry"/>
                </mxCell>
                <mxCell id="sVgdffkQ3w-8zsyEX-1O-34" value="&lt;span style=&quot;font-size: 14px&quot;&gt;&lt;b&gt;dht11&lt;/b&gt;&lt;/span&gt;" style="rounded=1;whiteSpace=wrap;html=1;" vertex="1" parent="f1mcjPqgYPUA-9DvgXTx-1">
                    <mxGeometry x="41" y="280" width="120" height="40" as="geometry"/>
                </mxCell>
                <mxCell id="sVgdffkQ3w-8zsyEX-1O-35" style="edgeStyle=orthogonalEdgeStyle;rounded=1;orthogonalLoop=1;jettySize=auto;html=1;exitX=0.5;exitY=0;exitDx=0;exitDy=0;entryX=0.5;entryY=0;entryDx=0;entryDy=0;" edge="1" parent="f1mcjPqgYPUA-9DvgXTx-1" source="sVgdffkQ3w-8zsyEX-1O-36" target="sVgdffkQ3w-8zsyEX-1O-40">
                    <mxGeometry relative="1" as="geometry"/>
                </mxCell>
                <mxCell id="sVgdffkQ3w-8zsyEX-1O-36" value="&lt;span style=&quot;font-size: 14px&quot;&gt;&lt;b&gt;ClockService&lt;/b&gt;&lt;/span&gt;" style="rounded=1;whiteSpace=wrap;html=1;" vertex="1" parent="f1mcjPqgYPUA-9DvgXTx-1">
                    <mxGeometry x="40" y="40" width="120" height="40" as="geometry"/>
                </mxCell>
                <mxCell id="sVgdffkQ3w-8zsyEX-1O-37" value="&lt;span style=&quot;font-size: 14px;&quot;&gt;&lt;b&gt;모니터&lt;/b&gt;&lt;/span&gt;" style="rounded=1;whiteSpace=wrap;html=1;" vertex="1" parent="f1mcjPqgYPUA-9DvgXTx-1">
                    <mxGeometry x="840" y="280" width="120" height="40" as="geometry"/>
                </mxCell>
                <mxCell id="sVgdffkQ3w-8zsyEX-1O-38" value="" style="edgeStyle=orthogonalEdgeStyle;rounded=0;orthogonalLoop=1;jettySize=auto;html=1;" edge="1" parent="f1mcjPqgYPUA-9DvgXTx-1" source="sVgdffkQ3w-8zsyEX-1O-40" target="sVgdffkQ3w-8zsyEX-1O-37">
                    <mxGeometry relative="1" as="geometry"/>
                </mxCell>
                <mxCell id="sVgdffkQ3w-8zsyEX-1O-39" style="edgeStyle=orthogonalEdgeStyle;rounded=1;orthogonalLoop=1;jettySize=auto;html=1;exitX=0.5;exitY=1;exitDx=0;exitDy=0;entryX=0.5;entryY=0;entryDx=0;entryDy=0;" edge="1" parent="f1mcjPqgYPUA-9DvgXTx-1" source="sVgdffkQ3w-8zsyEX-1O-40" target="sVgdffkQ3w-8zsyEX-1O-25">
                    <mxGeometry relative="1" as="geometry"/>
                </mxCell>
                <mxCell id="sVgdffkQ3w-8zsyEX-1O-40" value="&lt;span style=&quot;font-size: 14px;&quot;&gt;&lt;b&gt;온습도&lt;br&gt;View&lt;br&gt;&lt;/b&gt;&lt;/span&gt;" style="rounded=1;whiteSpace=wrap;html=1;" vertex="1" parent="f1mcjPqgYPUA-9DvgXTx-1">
                    <mxGeometry x="840" y="200" width="120" height="40" as="geometry"/>
                </mxCell>
            </root>
        </mxGraphModel>
    </diagram>
</mxfile>